<mxfile host="app.diagrams.net" modified="2023-06-12T08:57:53.465Z" agent="Mozilla/5.0 (Windows NT 10.0; Win64; x64) AppleWebKit/537.36 (KHTML, like Gecko) Chrome/114.0.0.0 Safari/537.36" etag="22fALakgHSFCslSiACvO" version="21.3.8" type="github">
  <diagram name="Page-1" id="Fw9cqJjb__tHlQrYpdmn">
    <mxGraphModel dx="1509" dy="804" grid="1" gridSize="10" guides="1" tooltips="1" connect="1" arrows="1" fold="1" page="1" pageScale="1" pageWidth="850" pageHeight="1100" math="0" shadow="0">
      <root>
        <mxCell id="0" />
        <mxCell id="1" parent="0" />
        <mxCell id="8VgfwEKivi2yDVHk0vp1-1" value="Complex Tour Requests" style="swimlane;html=1;childLayout=stackLayout;startSize=20;rounded=0;shadow=0;comic=0;labelBackgroundColor=none;strokeWidth=1;fontFamily=Verdana;fontSize=12;align=center;" parent="1" vertex="1">
          <mxGeometry x="40" y="60" width="1100" height="1200" as="geometry" />
        </mxCell>
        <mxCell id="8VgfwEKivi2yDVHk0vp1-2" value="Guest" style="swimlane;html=1;startSize=20;" parent="8VgfwEKivi2yDVHk0vp1-1" vertex="1">
          <mxGeometry y="20" width="360" height="1180" as="geometry" />
        </mxCell>
        <mxCell id="caFW8qKVI6c5xIOxycWt-1" style="edgeStyle=orthogonalEdgeStyle;rounded=0;orthogonalLoop=1;jettySize=auto;html=1;" edge="1" parent="8VgfwEKivi2yDVHk0vp1-2" source="8VgfwEKivi2yDVHk0vp1-29" target="Xuwz4tC_ESnuj5XWv51q-10">
          <mxGeometry relative="1" as="geometry" />
        </mxCell>
        <mxCell id="8VgfwEKivi2yDVHk0vp1-29" value="" style="ellipse;whiteSpace=wrap;html=1;rounded=0;shadow=0;comic=0;labelBackgroundColor=none;strokeWidth=1;fillColor=#000000;fontFamily=Helvetica;fontSize=12;align=center;shape=startState;strokeColor=#ff0000;" parent="8VgfwEKivi2yDVHk0vp1-2" vertex="1">
          <mxGeometry x="80" y="25" width="40" height="40" as="geometry" />
        </mxCell>
        <mxCell id="Xuwz4tC_ESnuj5XWv51q-30" style="edgeStyle=orthogonalEdgeStyle;rounded=0;orthogonalLoop=1;jettySize=auto;html=1;exitX=0.5;exitY=1;exitDx=0;exitDy=0;entryX=0.5;entryY=0;entryDx=0;entryDy=0;" parent="8VgfwEKivi2yDVHk0vp1-2" source="8VgfwEKivi2yDVHk0vp1-188" edge="1" target="Xuwz4tC_ESnuj5XWv51q-31">
          <mxGeometry relative="1" as="geometry">
            <mxPoint x="190.52941176470586" y="1090" as="targetPoint" />
          </mxGeometry>
        </mxCell>
        <mxCell id="8VgfwEKivi2yDVHk0vp1-188" value="Receive Notification" style="shape=dataStorage;whiteSpace=wrap;html=1;fixedSize=1;" parent="8VgfwEKivi2yDVHk0vp1-2" vertex="1">
          <mxGeometry x="110" y="840" width="160" height="50" as="geometry" />
        </mxCell>
        <mxCell id="Xuwz4tC_ESnuj5XWv51q-23" style="edgeStyle=orthogonalEdgeStyle;rounded=0;orthogonalLoop=1;jettySize=auto;html=1;exitX=0.5;exitY=1;exitDx=0;exitDy=0;entryX=0.411;entryY=0.04;entryDx=0;entryDy=0;entryPerimeter=0;" parent="8VgfwEKivi2yDVHk0vp1-2" source="Xuwz4tC_ESnuj5XWv51q-1" target="Xuwz4tC_ESnuj5XWv51q-20" edge="1">
          <mxGeometry relative="1" as="geometry" />
        </mxCell>
        <mxCell id="Xuwz4tC_ESnuj5XWv51q-1" value="Create new Complex Tour Request" style="rounded=1;whiteSpace=wrap;html=1;" parent="8VgfwEKivi2yDVHk0vp1-2" vertex="1">
          <mxGeometry x="50" y="290" width="120" height="50" as="geometry" />
        </mxCell>
        <mxCell id="Xuwz4tC_ESnuj5XWv51q-4" style="edgeStyle=orthogonalEdgeStyle;rounded=0;orthogonalLoop=1;jettySize=auto;html=1;entryX=0;entryY=0.25;entryDx=0;entryDy=0;" parent="8VgfwEKivi2yDVHk0vp1-2" source="Xuwz4tC_ESnuj5XWv51q-3" target="Xuwz4tC_ESnuj5XWv51q-20" edge="1">
          <mxGeometry relative="1" as="geometry">
            <Array as="points">
              <mxPoint x="10" y="590" />
              <mxPoint x="10" y="435" />
            </Array>
          </mxGeometry>
        </mxCell>
        <mxCell id="Xuwz4tC_ESnuj5XWv51q-3" value="is valid" style="rhombus;whiteSpace=wrap;html=1;" parent="8VgfwEKivi2yDVHk0vp1-2" vertex="1">
          <mxGeometry x="82.5" y="550" width="80" height="80" as="geometry" />
        </mxCell>
        <mxCell id="Xuwz4tC_ESnuj5XWv51q-5" value="no" style="text;html=1;align=center;verticalAlign=middle;resizable=0;points=[];autosize=1;strokeColor=none;fillColor=none;" parent="8VgfwEKivi2yDVHk0vp1-2" vertex="1">
          <mxGeometry x="20" y="540" width="40" height="30" as="geometry" />
        </mxCell>
        <mxCell id="Xuwz4tC_ESnuj5XWv51q-13" style="edgeStyle=orthogonalEdgeStyle;rounded=0;orthogonalLoop=1;jettySize=auto;html=1;exitX=0.5;exitY=1;exitDx=0;exitDy=0;entryX=0.5;entryY=0;entryDx=0;entryDy=0;" parent="8VgfwEKivi2yDVHk0vp1-2" source="Xuwz4tC_ESnuj5XWv51q-10" target="Xuwz4tC_ESnuj5XWv51q-11" edge="1">
          <mxGeometry relative="1" as="geometry" />
        </mxCell>
        <mxCell id="Xuwz4tC_ESnuj5XWv51q-10" value="View complex tour requests" style="rounded=1;whiteSpace=wrap;html=1;" parent="8VgfwEKivi2yDVHk0vp1-2" vertex="1">
          <mxGeometry x="30" y="100" width="140" height="50" as="geometry" />
        </mxCell>
        <mxCell id="Xuwz4tC_ESnuj5XWv51q-12" style="edgeStyle=orthogonalEdgeStyle;rounded=0;orthogonalLoop=1;jettySize=auto;html=1;entryX=0.5;entryY=0;entryDx=0;entryDy=0;" parent="8VgfwEKivi2yDVHk0vp1-2" source="Xuwz4tC_ESnuj5XWv51q-11" target="Xuwz4tC_ESnuj5XWv51q-1" edge="1">
          <mxGeometry relative="1" as="geometry" />
        </mxCell>
        <mxCell id="Xuwz4tC_ESnuj5XWv51q-15" style="edgeStyle=orthogonalEdgeStyle;rounded=0;orthogonalLoop=1;jettySize=auto;html=1;exitX=1;exitY=0.5;exitDx=0;exitDy=0;entryX=0;entryY=0.5;entryDx=0;entryDy=0;" parent="8VgfwEKivi2yDVHk0vp1-2" source="Xuwz4tC_ESnuj5XWv51q-11" target="caFW8qKVI6c5xIOxycWt-3" edge="1">
          <mxGeometry relative="1" as="geometry">
            <mxPoint x="185.00007381794398" y="215.4000000000001" as="targetPoint" />
          </mxGeometry>
        </mxCell>
        <mxCell id="Xuwz4tC_ESnuj5XWv51q-11" value="want new request" style="rhombus;whiteSpace=wrap;html=1;" parent="8VgfwEKivi2yDVHk0vp1-2" vertex="1">
          <mxGeometry x="70" y="180" width="80" height="70" as="geometry" />
        </mxCell>
        <mxCell id="Xuwz4tC_ESnuj5XWv51q-14" value="yes" style="text;html=1;align=center;verticalAlign=middle;resizable=0;points=[];autosize=1;strokeColor=none;fillColor=none;" parent="8VgfwEKivi2yDVHk0vp1-2" vertex="1">
          <mxGeometry x="110" y="250" width="40" height="30" as="geometry" />
        </mxCell>
        <mxCell id="Xuwz4tC_ESnuj5XWv51q-17" value="start" style="text;html=1;align=center;verticalAlign=middle;resizable=0;points=[];autosize=1;strokeColor=none;fillColor=none;" parent="8VgfwEKivi2yDVHk0vp1-2" vertex="1">
          <mxGeometry x="40" y="30" width="50" height="30" as="geometry" />
        </mxCell>
        <mxCell id="Xuwz4tC_ESnuj5XWv51q-24" style="edgeStyle=orthogonalEdgeStyle;rounded=0;orthogonalLoop=1;jettySize=auto;html=1;exitX=0.5;exitY=1;exitDx=0;exitDy=0;" parent="8VgfwEKivi2yDVHk0vp1-2" source="Xuwz4tC_ESnuj5XWv51q-20" target="Xuwz4tC_ESnuj5XWv51q-3" edge="1">
          <mxGeometry relative="1" as="geometry">
            <Array as="points">
              <mxPoint x="123" y="480" />
            </Array>
          </mxGeometry>
        </mxCell>
        <mxCell id="Xuwz4tC_ESnuj5XWv51q-20" value="Add parts to complex request" style="rounded=1;whiteSpace=wrap;html=1;" parent="8VgfwEKivi2yDVHk0vp1-2" vertex="1">
          <mxGeometry x="60" y="420" width="120" height="60" as="geometry" />
        </mxCell>
        <mxCell id="Xuwz4tC_ESnuj5XWv51q-29" value="no" style="text;html=1;align=center;verticalAlign=middle;resizable=0;points=[];autosize=1;strokeColor=none;fillColor=none;" parent="8VgfwEKivi2yDVHk0vp1-2" vertex="1">
          <mxGeometry x="140" y="190" width="40" height="30" as="geometry" />
        </mxCell>
        <mxCell id="Xuwz4tC_ESnuj5XWv51q-33" style="edgeStyle=orthogonalEdgeStyle;rounded=0;orthogonalLoop=1;jettySize=auto;html=1;exitX=0.5;exitY=1;exitDx=0;exitDy=0;entryX=0.5;entryY=0;entryDx=0;entryDy=0;" parent="8VgfwEKivi2yDVHk0vp1-2" source="Xuwz4tC_ESnuj5XWv51q-31" target="Xuwz4tC_ESnuj5XWv51q-32" edge="1">
          <mxGeometry relative="1" as="geometry" />
        </mxCell>
        <mxCell id="Xuwz4tC_ESnuj5XWv51q-31" value="View accepted parts of Complex Tour Requests and its Departute Time" style="rounded=1;whiteSpace=wrap;html=1;" parent="8VgfwEKivi2yDVHk0vp1-2" vertex="1">
          <mxGeometry x="130" y="1000" width="120" height="60" as="geometry" />
        </mxCell>
        <mxCell id="Xuwz4tC_ESnuj5XWv51q-32" value="" style="ellipse;html=1;shape=endState;fillColor=#000000;strokeColor=#ff0000;" parent="8VgfwEKivi2yDVHk0vp1-2" vertex="1">
          <mxGeometry x="175" y="1120" width="30" height="30" as="geometry" />
        </mxCell>
        <mxCell id="caFW8qKVI6c5xIOxycWt-3" value="" style="shape=sumEllipse;perimeter=ellipsePerimeter;whiteSpace=wrap;html=1;backgroundOutline=1;" vertex="1" parent="8VgfwEKivi2yDVHk0vp1-2">
          <mxGeometry x="190" y="200" width="30" height="30" as="geometry" />
        </mxCell>
        <mxCell id="8VgfwEKivi2yDVHk0vp1-11" value="System" style="swimlane;html=1;startSize=20;" parent="8VgfwEKivi2yDVHk0vp1-1" vertex="1">
          <mxGeometry x="360" y="20" width="340" height="1180" as="geometry" />
        </mxCell>
        <mxCell id="caFW8qKVI6c5xIOxycWt-10" style="edgeStyle=orthogonalEdgeStyle;rounded=0;orthogonalLoop=1;jettySize=auto;html=1;" edge="1" parent="8VgfwEKivi2yDVHk0vp1-11" source="8VgfwEKivi2yDVHk0vp1-142" target="8VgfwEKivi2yDVHk0vp1-159">
          <mxGeometry relative="1" as="geometry" />
        </mxCell>
        <mxCell id="caFW8qKVI6c5xIOxycWt-11" value="no" style="edgeLabel;html=1;align=center;verticalAlign=middle;resizable=0;points=[];" vertex="1" connectable="0" parent="caFW8qKVI6c5xIOxycWt-10">
          <mxGeometry x="-0.2283" y="2" relative="1" as="geometry">
            <mxPoint x="13" as="offset" />
          </mxGeometry>
        </mxCell>
        <mxCell id="8VgfwEKivi2yDVHk0vp1-142" value="Already Accepted One Part" style="rhombus;whiteSpace=wrap;html=1;" parent="8VgfwEKivi2yDVHk0vp1-11" vertex="1">
          <mxGeometry x="90" y="430" width="90" height="100" as="geometry" />
        </mxCell>
        <mxCell id="8VgfwEKivi2yDVHk0vp1-159" value="Generate Possible Departure Times" style="rounded=1;whiteSpace=wrap;html=1;" parent="8VgfwEKivi2yDVHk0vp1-11" vertex="1">
          <mxGeometry x="75" y="610" width="120" height="60" as="geometry" />
        </mxCell>
        <mxCell id="8VgfwEKivi2yDVHk0vp1-192" style="edgeStyle=orthogonalEdgeStyle;rounded=0;orthogonalLoop=1;jettySize=auto;html=1;" parent="8VgfwEKivi2yDVHk0vp1-11" source="8VgfwEKivi2yDVHk0vp1-186" target="8VgfwEKivi2yDVHk0vp1-187" edge="1">
          <mxGeometry relative="1" as="geometry" />
        </mxCell>
        <mxCell id="8VgfwEKivi2yDVHk0vp1-186" value="Create Tour From Tour Request" style="rounded=1;whiteSpace=wrap;html=1;" parent="8VgfwEKivi2yDVHk0vp1-11" vertex="1">
          <mxGeometry x="75" y="740" width="120" height="60" as="geometry" />
        </mxCell>
        <mxCell id="8VgfwEKivi2yDVHk0vp1-187" value="Send Notification" style="shape=step;perimeter=stepPerimeter;whiteSpace=wrap;html=1;fixedSize=1;flipH=1;" parent="8VgfwEKivi2yDVHk0vp1-11" vertex="1">
          <mxGeometry x="65" y="840" width="140" height="50" as="geometry" />
        </mxCell>
        <mxCell id="caFW8qKVI6c5xIOxycWt-8" style="edgeStyle=orthogonalEdgeStyle;rounded=0;orthogonalLoop=1;jettySize=auto;html=1;entryX=0.5;entryY=0;entryDx=0;entryDy=0;" edge="1" parent="8VgfwEKivi2yDVHk0vp1-11" source="Xuwz4tC_ESnuj5XWv51q-8" target="Xuwz4tC_ESnuj5XWv51q-26">
          <mxGeometry relative="1" as="geometry" />
        </mxCell>
        <mxCell id="Xuwz4tC_ESnuj5XWv51q-8" value="Set status as PENDING" style="rounded=1;whiteSpace=wrap;html=1;" parent="8VgfwEKivi2yDVHk0vp1-11" vertex="1">
          <mxGeometry x="110" y="140" width="120" height="60" as="geometry" />
        </mxCell>
        <mxCell id="caFW8qKVI6c5xIOxycWt-7" style="edgeStyle=orthogonalEdgeStyle;rounded=0;orthogonalLoop=1;jettySize=auto;html=1;" edge="1" parent="8VgfwEKivi2yDVHk0vp1-11" source="Xuwz4tC_ESnuj5XWv51q-26" target="caFW8qKVI6c5xIOxycWt-4">
          <mxGeometry relative="1" as="geometry" />
        </mxCell>
        <mxCell id="Xuwz4tC_ESnuj5XWv51q-26" value="Save Complex Tour Request" style="rounded=1;whiteSpace=wrap;html=1;" parent="8VgfwEKivi2yDVHk0vp1-11" vertex="1">
          <mxGeometry x="110" y="240" width="120" height="60" as="geometry" />
        </mxCell>
        <mxCell id="caFW8qKVI6c5xIOxycWt-4" value="" style="shape=sumEllipse;perimeter=ellipsePerimeter;whiteSpace=wrap;html=1;backgroundOutline=1;" vertex="1" parent="8VgfwEKivi2yDVHk0vp1-11">
          <mxGeometry x="155" y="340" width="30" height="30" as="geometry" />
        </mxCell>
        <mxCell id="caFW8qKVI6c5xIOxycWt-15" style="edgeStyle=orthogonalEdgeStyle;rounded=0;orthogonalLoop=1;jettySize=auto;html=1;entryX=0;entryY=0.5;entryDx=0;entryDy=0;" edge="1" parent="8VgfwEKivi2yDVHk0vp1-11" source="caFW8qKVI6c5xIOxycWt-12" target="Xuwz4tC_ESnuj5XWv51q-8">
          <mxGeometry relative="1" as="geometry" />
        </mxCell>
        <mxCell id="caFW8qKVI6c5xIOxycWt-12" value="New Complex Tour" style="rounded=0;whiteSpace=wrap;html=1;" vertex="1" parent="8VgfwEKivi2yDVHk0vp1-11">
          <mxGeometry x="-30" y="150" width="80" height="40" as="geometry" />
        </mxCell>
        <mxCell id="8VgfwEKivi2yDVHk0vp1-27" value="Guide" style="swimlane;html=1;startSize=20;" parent="8VgfwEKivi2yDVHk0vp1-1" vertex="1">
          <mxGeometry x="700" y="20" width="400" height="1180" as="geometry" />
        </mxCell>
        <mxCell id="8VgfwEKivi2yDVHk0vp1-115" value="" style="ellipse;whiteSpace=wrap;html=1;rounded=0;shadow=0;comic=0;labelBackgroundColor=none;strokeWidth=1;fillColor=#000000;fontFamily=Helvetica;fontSize=12;align=center;shape=startState;strokeColor=#ff0000;" parent="8VgfwEKivi2yDVHk0vp1-27" vertex="1">
          <mxGeometry x="160" y="40" width="40" height="40" as="geometry" />
        </mxCell>
        <mxCell id="8VgfwEKivi2yDVHk0vp1-140" value="View Complex Tour Requests" style="rounded=1;whiteSpace=wrap;html=1;" parent="8VgfwEKivi2yDVHk0vp1-27" vertex="1">
          <mxGeometry x="120" y="210" width="120" height="60" as="geometry" />
        </mxCell>
        <mxCell id="8VgfwEKivi2yDVHk0vp1-141" value="Select Part of Complex Tour Request" style="rounded=1;whiteSpace=wrap;html=1;" parent="8VgfwEKivi2yDVHk0vp1-27" vertex="1">
          <mxGeometry x="120" y="320" width="120" height="60" as="geometry" />
        </mxCell>
        <mxCell id="8VgfwEKivi2yDVHk0vp1-144" style="edgeStyle=orthogonalEdgeStyle;rounded=0;html=1;labelBackgroundColor=none;startArrow=none;startFill=0;startSize=5;endArrow=classicThin;endFill=1;endSize=5;jettySize=auto;orthogonalLoop=1;strokeWidth=1;fontFamily=Verdana;fontSize=12;exitX=0.5;exitY=1;exitDx=0;exitDy=0;" parent="8VgfwEKivi2yDVHk0vp1-27" source="8VgfwEKivi2yDVHk0vp1-115" target="8VgfwEKivi2yDVHk0vp1-140" edge="1">
          <mxGeometry relative="1" as="geometry">
            <mxPoint x="-530" y="90" as="sourcePoint" />
            <mxPoint x="-530" y="110" as="targetPoint" />
          </mxGeometry>
        </mxCell>
        <mxCell id="8VgfwEKivi2yDVHk0vp1-145" style="edgeStyle=orthogonalEdgeStyle;rounded=0;html=1;labelBackgroundColor=none;startArrow=none;startFill=0;startSize=5;endArrow=classicThin;endFill=1;endSize=5;jettySize=auto;orthogonalLoop=1;strokeWidth=1;fontFamily=Verdana;fontSize=12;exitX=0.5;exitY=1;exitDx=0;exitDy=0;entryX=0.5;entryY=0;entryDx=0;entryDy=0;" parent="8VgfwEKivi2yDVHk0vp1-27" source="8VgfwEKivi2yDVHk0vp1-140" target="8VgfwEKivi2yDVHk0vp1-141" edge="1">
          <mxGeometry relative="1" as="geometry">
            <mxPoint x="190" y="90" as="sourcePoint" />
            <mxPoint x="190" y="280" as="targetPoint" />
          </mxGeometry>
        </mxCell>
        <mxCell id="8VgfwEKivi2yDVHk0vp1-163" value="Select Departure Time" style="rounded=1;whiteSpace=wrap;html=1;" parent="8VgfwEKivi2yDVHk0vp1-27" vertex="1">
          <mxGeometry x="120" y="610" width="120" height="60" as="geometry" />
        </mxCell>
        <mxCell id="8VgfwEKivi2yDVHk0vp1-167" style="edgeStyle=orthogonalEdgeStyle;rounded=0;orthogonalLoop=1;jettySize=auto;html=1;entryX=0;entryY=0.5;entryDx=0;entryDy=0;" parent="8VgfwEKivi2yDVHk0vp1-27" source="8VgfwEKivi2yDVHk0vp1-166" target="8VgfwEKivi2yDVHk0vp1-163" edge="1">
          <mxGeometry relative="1" as="geometry" />
        </mxCell>
        <mxCell id="8VgfwEKivi2yDVHk0vp1-166" value="Departure Times" style="rounded=0;whiteSpace=wrap;html=1;" parent="8VgfwEKivi2yDVHk0vp1-27" vertex="1">
          <mxGeometry x="-40" y="620" width="80" height="40" as="geometry" />
        </mxCell>
        <mxCell id="caFW8qKVI6c5xIOxycWt-2" value="start" style="text;html=1;align=center;verticalAlign=middle;resizable=0;points=[];autosize=1;strokeColor=none;fillColor=none;" vertex="1" parent="8VgfwEKivi2yDVHk0vp1-27">
          <mxGeometry x="120" y="30" width="50" height="30" as="geometry" />
        </mxCell>
        <mxCell id="8VgfwEKivi2yDVHk0vp1-147" style="edgeStyle=orthogonalEdgeStyle;rounded=0;html=1;labelBackgroundColor=none;startArrow=none;startFill=0;startSize=5;endArrow=classicThin;endFill=1;endSize=5;jettySize=auto;orthogonalLoop=1;strokeWidth=1;fontFamily=Verdana;fontSize=12;exitX=0.5;exitY=1;exitDx=0;exitDy=0;" parent="8VgfwEKivi2yDVHk0vp1-1" source="8VgfwEKivi2yDVHk0vp1-141" target="8VgfwEKivi2yDVHk0vp1-142" edge="1">
          <mxGeometry relative="1" as="geometry">
            <mxPoint x="840" y="300" as="sourcePoint" />
            <mxPoint x="840" y="350" as="targetPoint" />
          </mxGeometry>
        </mxCell>
        <mxCell id="8VgfwEKivi2yDVHk0vp1-165" style="edgeStyle=orthogonalEdgeStyle;rounded=0;orthogonalLoop=1;jettySize=auto;html=1;entryX=0;entryY=0.5;entryDx=0;entryDy=0;" parent="8VgfwEKivi2yDVHk0vp1-1" source="8VgfwEKivi2yDVHk0vp1-159" target="8VgfwEKivi2yDVHk0vp1-166" edge="1">
          <mxGeometry relative="1" as="geometry">
            <Array as="points">
              <mxPoint x="640" y="660" />
            </Array>
          </mxGeometry>
        </mxCell>
        <mxCell id="8VgfwEKivi2yDVHk0vp1-180" style="edgeStyle=orthogonalEdgeStyle;rounded=0;orthogonalLoop=1;jettySize=auto;html=1;entryX=1;entryY=0.5;entryDx=0;entryDy=0;" parent="8VgfwEKivi2yDVHk0vp1-1" source="8VgfwEKivi2yDVHk0vp1-142" target="8VgfwEKivi2yDVHk0vp1-141" edge="1">
          <mxGeometry relative="1" as="geometry">
            <mxPoint x="780" y="499.9999999999998" as="targetPoint" />
          </mxGeometry>
        </mxCell>
        <mxCell id="8VgfwEKivi2yDVHk0vp1-182" value="yes" style="edgeLabel;html=1;align=center;verticalAlign=middle;resizable=0;points=[];" parent="8VgfwEKivi2yDVHk0vp1-180" vertex="1" connectable="0">
          <mxGeometry x="-0.2462" y="1" relative="1" as="geometry">
            <mxPoint x="-135" y="-9" as="offset" />
          </mxGeometry>
        </mxCell>
        <mxCell id="8VgfwEKivi2yDVHk0vp1-189" style="edgeStyle=orthogonalEdgeStyle;rounded=0;orthogonalLoop=1;jettySize=auto;html=1;entryX=0.864;entryY=0.519;entryDx=0;entryDy=0;entryPerimeter=0;" parent="8VgfwEKivi2yDVHk0vp1-1" source="8VgfwEKivi2yDVHk0vp1-187" target="8VgfwEKivi2yDVHk0vp1-188" edge="1">
          <mxGeometry relative="1" as="geometry" />
        </mxCell>
        <mxCell id="8VgfwEKivi2yDVHk0vp1-191" style="edgeStyle=orthogonalEdgeStyle;rounded=0;orthogonalLoop=1;jettySize=auto;html=1;entryX=0.5;entryY=0;entryDx=0;entryDy=0;" parent="8VgfwEKivi2yDVHk0vp1-1" source="8VgfwEKivi2yDVHk0vp1-163" target="8VgfwEKivi2yDVHk0vp1-186" edge="1">
          <mxGeometry relative="1" as="geometry">
            <Array as="points">
              <mxPoint x="880" y="720" />
              <mxPoint x="495" y="720" />
            </Array>
          </mxGeometry>
        </mxCell>
        <mxCell id="caFW8qKVI6c5xIOxycWt-13" style="edgeStyle=orthogonalEdgeStyle;rounded=0;orthogonalLoop=1;jettySize=auto;html=1;entryX=0;entryY=0.5;entryDx=0;entryDy=0;" edge="1" parent="8VgfwEKivi2yDVHk0vp1-1" source="Xuwz4tC_ESnuj5XWv51q-3" target="caFW8qKVI6c5xIOxycWt-12">
          <mxGeometry relative="1" as="geometry" />
        </mxCell>
        <mxCell id="caFW8qKVI6c5xIOxycWt-14" value="yes" style="edgeLabel;html=1;align=center;verticalAlign=middle;resizable=0;points=[];" vertex="1" connectable="0" parent="caFW8qKVI6c5xIOxycWt-13">
          <mxGeometry x="-0.8099" relative="1" as="geometry">
            <mxPoint x="-8" y="-10" as="offset" />
          </mxGeometry>
        </mxCell>
        <mxCell id="Xuwz4tC_ESnuj5XWv51q-34" value="end" style="text;html=1;align=center;verticalAlign=middle;resizable=0;points=[];autosize=1;strokeColor=none;fillColor=none;" parent="1" vertex="1">
          <mxGeometry x="250" y="1208" width="40" height="30" as="geometry" />
        </mxCell>
      </root>
    </mxGraphModel>
  </diagram>
</mxfile>
